<svg width="400" height="400" viewBox="0 0 400 400" fill="none" xmlns="http://www.w3.org/2000/svg">
<g opacity="0.08">
<path d="M268.054 389.189H116.27C114.929 389.188 113.637 388.689 112.643 387.789C70.4865 349.589 43.2432 293.01 43.2432 243.643C43.2432 160.21 108.313 97.2969 194.595 97.2969C280.876 97.2969 345.946 160.21 345.946 243.643C345.946 300.367 305.946 356.756 271.681 387.789C270.688 388.689 269.395 389.188 268.054 389.189ZM118.378 378.378H265.946C298.222 348.551 335.135 296 335.135 243.643C335.135 166.378 274.714 108.108 194.595 108.108C114.476 108.108 54.054 166.378 54.054 243.643C54.054 289.502 79.2432 342.162 118.378 378.378Z" fill="url(#paint0_linear_34_4147)"/>
<path d="M237.838 106.38H227.027V27.0287C227.027 25.5951 226.457 24.2202 225.444 23.2065C224.43 22.1928 223.055 21.6233 221.622 21.6233H167.568C166.134 21.6233 164.759 22.1928 163.745 23.2065C162.732 24.2202 162.162 25.5951 162.162 27.0287V54.0557H151.351V27.0287C151.351 22.7279 153.06 18.6033 156.101 15.5621C159.142 12.521 163.267 10.8125 167.568 10.8125H221.622C225.922 10.8125 230.047 12.521 233.088 15.5621C236.129 18.6033 237.838 22.7279 237.838 27.0287V106.38ZM151.351 75.6774H162.162V106.38H151.351V75.6774Z" fill="url(#paint1_linear_34_4147)"/>
<path d="M189.189 37.8399H200V48.6507H189.189V37.8399ZM262.33 43.8561L327.162 11.4453L331.995 21.1102L267.162 53.5156L262.33 43.8561ZM262.362 75.2237L267.195 65.5588L332.027 97.9696L327.195 107.635L262.362 75.2237ZM286.486 54.0561H351.351V64.8669H286.486V54.0561ZM257.243 362.164H127.135C126.417 362.163 125.707 362.02 125.045 361.741C124.383 361.463 123.784 361.055 123.281 360.543C91.0811 327.786 70.2703 281.889 70.2703 243.624C70.2675 235.337 71.0822 227.07 72.7027 218.943C72.8705 218.103 73.2354 217.315 73.7673 216.644C74.2993 215.973 74.983 215.438 75.7622 215.083C100.324 203.905 148.811 190.007 197.595 222.532C210.005 230.977 224.069 236.689 238.854 239.289L237.038 249.948C220.758 247.109 205.267 240.845 191.589 231.57C148.795 203.04 106.005 213.856 82.7892 223.84C81.6542 230.373 81.0827 236.992 81.0811 243.624C81.0811 278.586 100 320.64 129.422 351.353H254.984C279.849 325.862 308.108 283.04 308.108 243.624V241.278C292.705 247.667 276.259 251.174 259.589 251.624L259.384 240.813C277.186 240.278 294.679 236.019 310.735 228.31C311.52 227.938 312.383 227.76 313.251 227.793C314.119 227.825 314.966 228.065 315.721 228.494C316.477 228.923 317.117 229.528 317.589 230.257C318.061 230.986 318.35 231.819 318.432 232.683C318.773 236.229 318.941 239.91 318.941 243.624C318.941 287.121 289.059 332.564 261.103 360.58C260.596 361.087 259.994 361.488 259.332 361.76C258.669 362.032 257.959 362.169 257.243 362.164Z" fill="url(#paint2_linear_34_4147)"/>
</g>
<defs>
<linearGradient id="paint0_linear_34_4147" x1="35.1306" y1="143.339" x2="352.132" y2="156.997" gradientUnits="userSpaceOnUse">
<stop stop-color="#C09E6C"/>
<stop offset="0.426246" stop-color="#FFEBCC"/>
<stop offset="1" stop-color="#BF936B"/>
</linearGradient>
<linearGradient id="paint1_linear_34_4147" x1="149.033" y1="25.8872" x2="239.645" y2="29.2939" gradientUnits="userSpaceOnUse">
<stop stop-color="#C09E6C"/>
<stop offset="0.426246" stop-color="#FFEBCC"/>
<stop offset="1" stop-color="#BF936B"/>
</linearGradient>
<linearGradient id="paint2_linear_34_4147" x1="62.7371" y1="66.7671" x2="357.315" y2="76.5754" gradientUnits="userSpaceOnUse">
<stop stop-color="#C09E6C"/>
<stop offset="0.426246" stop-color="#FFEBCC"/>
<stop offset="1" stop-color="#BF936B"/>
</linearGradient>
</defs>
</svg>
