<svg width="24" height="26" viewBox="0 0 24 26" fill="none" xmlns="http://www.w3.org/2000/svg">
<path fill-rule="evenodd" clip-rule="evenodd" d="M17.2745 6.95348L18.6429 7.00387C19.1613 7.0309 19.6325 7.07145 20.0601 7.13412C21.3391 7.31967 22.3977 7.72026 23.1499 8.66399C23.9021 9.60894 24.0668 10.7419 23.9784 12.0494C23.8936 13.3163 23.5544 14.9149 23.1329 16.9117L22.5867 19.5008C22.302 20.8489 22.0707 21.9413 21.78 22.7941C21.4772 23.6849 21.0775 24.4161 20.3968 24.9752C19.7161 25.5343 18.9264 25.7764 18.0058 25.8906C17.1216 26 16.0194 26 14.6629 26H9.33834C7.97935 26 6.87835 26 5.99416 25.8906C5.07364 25.7764 4.28392 25.5343 3.60321 24.9752C2.9213 24.4161 2.5228 23.6849 2.22 22.7953C1.92931 21.9413 1.69917 20.8488 1.41333 19.5021L0.867066 16.913C0.445561 14.9149 0.10763 13.3163 0.0216336 12.0494C-0.0667855 10.7419 0.0979405 9.60894 0.850108 8.66399C1.60107 7.72026 2.65967 7.31967 3.93872 7.13412C4.36628 7.07268 4.83866 7.0309 5.35585 7.00387L8.80419 6.95348H15.197C15.6839 6.95348 16.8336 6.95103 17.2745 6.95348ZM4.40867 8.92941L3.92055 9.91983C3.86617 10.0282 3.83347 10.1465 3.82435 10.2677C3.81522 10.389 3.82985 10.5109 3.86739 10.6264C3.90493 10.742 3.96463 10.8488 4.04306 10.9408C4.12149 11.0328 4.21709 11.1081 4.32436 11.1624C4.43162 11.2168 4.54842 11.249 4.66803 11.2573C4.78764 11.2657 4.90769 11.2499 5.02125 11.2109C5.13482 11.1719 5.23966 11.1105 5.32972 11.0302C5.41979 10.9499 5.49329 10.8524 5.54601 10.7431L6.49924 8.80899C7.18964 8.7967 7.97693 8.79547 8.87808 8.79547H15.1231C16.0243 8.79547 16.8116 8.79547 17.502 8.80776L18.4552 10.7431C18.5639 10.9599 18.7527 11.1242 18.9803 11.2003C19.208 11.2765 19.4561 11.2582 19.6705 11.1496C19.885 11.041 20.0485 10.8508 20.1253 10.6204C20.2021 10.3901 20.1861 10.1382 20.0807 9.91983L19.5925 8.92941L19.8033 8.95767C20.874 9.11373 21.3985 9.39758 21.7376 9.82152C22.0707 10.2393 22.2342 10.8083 22.1688 11.8675H1.83241C1.767 10.8083 1.93052 10.2393 2.2636 9.82152C2.60274 9.39758 3.1272 9.11373 4.19792 8.95767L4.40867 8.92941ZM2.65967 16.5996C2.45145 15.64 2.25723 14.6774 2.07708 13.7119H21.9241C21.7433 14.6773 21.5487 15.64 21.3403 16.5996L20.8219 19.0572C20.5215 20.4765 20.3132 21.4583 20.0625 22.1932C19.8202 22.9059 19.5732 23.2819 19.2546 23.5424C18.9373 23.8029 18.5218 23.97 17.7866 24.061C17.0247 24.1556 16.034 24.1568 14.6035 24.1568H9.39648C7.96724 24.1568 6.97646 24.1556 6.2146 24.061C5.47818 23.97 5.06395 23.8029 4.74661 23.5424C4.42805 23.2819 4.17975 22.9046 3.93872 22.1932C3.688 21.4583 3.47846 20.4765 3.17929 19.0572L2.65967 16.5996Z" fill="url(#paint0_linear_1712_25867)"/>
<path d="M19.2 10.5238C19.2 10.5238 16.8 0.999994 12 0.999994C7.20005 0.999994 4.80005 10.5238 4.80005 10.5238" stroke="url(#paint1_linear_1712_25867)" stroke-width="1.5" stroke-linecap="round" stroke-linejoin="round"/>
<defs>
<linearGradient id="paint0_linear_1712_25867" x1="-0.643216" y1="9.95693" x2="24.4683" y2="11.2714" gradientUnits="userSpaceOnUse">
<stop stop-color="#C09E6C"/>
<stop offset="0.426246" stop-color="#FFEBCC"/>
<stop offset="1" stop-color="#BF936B"/>
</linearGradient>
<linearGradient id="paint1_linear_1712_25867" x1="4.41412" y1="9.02154" x2="19.4629" y2="8.07622" gradientUnits="userSpaceOnUse">
<stop stop-color="#C09E6C"/>
<stop offset="0.426246" stop-color="#FFEBCC"/>
<stop offset="1" stop-color="#BF936B"/>
</linearGradient>
</defs>
</svg>
