<svg width="18" height="20" viewBox="0 0 18 20" fill="none" xmlns="http://www.w3.org/2000/svg">
<path d="M9 11C11.7614 11 14 8.76142 14 6C14 3.23858 11.7614 1 9 1C6.23858 1 4 3.23858 4 6C4 8.76142 6.23858 11 9 11Z" stroke="url(#paint0_linear_1712_25632)" stroke-width="2" stroke-linecap="round" stroke-linejoin="round"/>
<path d="M17 19C17 16.8783 16.1571 14.8434 14.6569 13.3431C13.1566 11.8429 11.1217 11 9 11C6.87827 11 4.84344 11.8429 3.34315 13.3431C1.84285 14.8434 1 16.8783 1 19" stroke="url(#paint1_linear_1712_25632)" stroke-width="2" stroke-linecap="round" stroke-linejoin="round"/>
<defs>
<linearGradient id="paint0_linear_1712_25632" x1="3.73199" y1="2.57738" x2="14.2057" y2="3.01252" gradientUnits="userSpaceOnUse">
<stop stop-color="#C09E6C"/>
<stop offset="0.426246" stop-color="#FFEBCC"/>
<stop offset="1" stop-color="#BF936B"/>
</linearGradient>
<linearGradient id="paint1_linear_1712_25632" x1="0.571189" y1="12.2619" x2="17.243" y2="13.6472" gradientUnits="userSpaceOnUse">
<stop stop-color="#C09E6C"/>
<stop offset="0.426246" stop-color="#FFEBCC"/>
<stop offset="1" stop-color="#BF936B"/>
</linearGradient>
</defs>
</svg>
