<svg width="72" height="86" viewBox="0 0 72 86" fill="none" xmlns="http://www.w3.org/2000/svg">
<path d="M10.7232 45.3695H61.2769C63.6464 41.2091 65 36.4059 65 31.2893C65 15.4325 52.0163 2.57812 36.0001 2.57812C19.9839 2.57812 7.00024 15.4325 7.00024 31.2893C7.00013 36.4061 8.35364 41.2091 10.7232 45.3695Z" fill="#545041"/>
<path d="M33.4895 40.4075C33.4895 40.4075 35.2471 41.1709 36.0001 42.2659C36.753 41.1709 38.5106 40.4075 38.5106 40.4075L45.5877 36.8439C44.9889 36.6606 44.3836 36.499 43.7729 36.3592C42.5713 35.1695 42.2666 32.914 42.2118 31.3359C41.5847 32.0591 40.9266 32.664 40.2977 33.1474C39.0724 34.0895 37.5604 34.6011 36.0031 34.6011C34.4459 34.6011 32.9339 34.0895 31.7087 33.1474C31.0798 32.6639 30.4217 32.059 29.7945 31.3359C29.7397 32.914 29.435 35.1695 28.2334 36.3592C27.6214 36.4992 27.0147 36.6613 26.4147 36.845L33.4895 40.4075Z" fill="#FFAA7B"/>
<path d="M35.709 34.595C34.2563 34.5349 32.8565 34.0301 31.7086 33.1475C31.0797 32.664 30.4215 32.0591 29.7944 31.3359C29.7467 32.7086 29.5092 34.593 28.6576 35.8436C29.8688 38.2639 31.4382 40.2891 33.0255 39.2298C34.9829 37.9235 35.5635 35.982 35.709 34.595Z" fill="#FC9460"/>
<path d="M33.7383 40.0382L30.5983 38.457C29.2622 38.8593 27.4377 39.9097 27.3733 42.6514C26.471 42.8061 21.9278 43.7955 21.9278 47.998V56.3982C26.0951 58.6931 30.8928 60.0014 36 60.0014C36.1013 60.0014 36.2019 59.9986 36.303 59.9976V42.5773C36.303 41.1515 33.7383 40.0382 33.7383 40.0382Z" fill="#7E6DD1"/>
<path d="M22.1054 56.4951V47.9984C22.1054 43.4582 27.5492 42.8026 27.5492 42.8026C27.5492 39.9201 29.5042 38.9182 30.8213 38.5698L27.0369 36.6641C18.9339 39.28 15.0638 40.3262 13.0459 41.7522C15.1467 43.1717 18.4505 46.1204 18.4505 50.6318V54.148C19.6077 55.0199 20.8294 55.8044 22.1054 56.4951Z" fill="#7255CE"/>
<path d="M44.9632 36.6641L38.2615 40.0387C38.2615 40.0387 35.6969 41.152 35.6969 42.5778V59.9981C35.798 59.9991 35.8986 60.0018 35.9999 60.0018C37.3602 60.0018 38.6982 59.9076 40.0086 59.7282L40.0078 59.7276L48.2676 57.3116V57.3118C50.1369 56.4463 51.9076 55.3856 53.5494 54.1478V50.6318C53.5494 46.1204 56.8534 43.1718 58.954 41.7522C56.9362 40.3262 53.0663 39.28 44.9632 36.6641Z" fill="#9589E8"/>
<path d="M42.891 33.6456C42.8594 33.6283 42.8241 33.6186 42.788 33.6173C42.7519 33.6161 42.716 33.6232 42.6832 33.6383C42.6504 33.6533 42.6217 33.6758 42.5993 33.7038C42.5769 33.7319 42.5615 33.7648 42.5544 33.7999C42.3519 34.7819 41.4731 37.8756 38.2099 39.7117C37.8885 39.8925 37.8116 40.3169 38.0546 40.5927L41.352 44.3318C42.0367 45.1125 43.2972 44.972 43.7913 44.0612C44.6268 42.5213 45.7907 40.1776 46.6521 37.6578C46.8064 37.2067 46.6967 36.7078 46.3716 36.3567C45.3675 35.2722 44.192 34.3565 42.891 33.6456Z" fill="#B5B0F7"/>
<path d="M33.792 39.7158C33.0069 39.274 32.3609 38.7591 31.828 38.2188C31.034 38.2854 27.5806 38.7898 27.3829 42.4708C27.6491 43.0072 27.925 43.5389 28.2105 44.0655C28.7047 44.9762 29.9652 45.1168 30.6498 44.3361L33.9472 40.597C34.1903 40.3211 34.1132 39.8965 33.792 39.7158Z" fill="#9589E8"/>
<path d="M29.4474 33.7999C29.4403 33.7648 29.4249 33.7319 29.4025 33.7038C29.3802 33.6758 29.3514 33.6533 29.3186 33.6383C29.2859 33.6232 29.25 33.6161 29.2138 33.6173C29.1777 33.6186 29.1424 33.6283 29.1108 33.6456C27.8099 34.3565 26.6344 35.2722 25.6303 36.3567C25.3052 36.7078 25.1955 37.2067 25.3497 37.6578C26.001 39.5627 26.8248 41.3662 27.5491 42.7986C27.5492 38.4533 31.9942 38.3799 31.9942 38.3799L31.9943 38.3796C30.1811 36.6374 29.6062 34.5698 29.4474 33.7999Z" fill="#7E6DD1"/>
<path d="M53.3126 54.3221C56.5685 51.9192 59.2812 48.8691 61.2766 45.3675C61.0534 44.71 60.8117 44.1068 60.5493 43.577C60.1712 42.8136 59.6465 42.215 58.8372 41.668C56.7449 43.055 53.3126 46.0307 53.3126 50.6282V54.3221Z" fill="#B5B0F7"/>
<path d="M13.1625 41.668C12.3533 42.2151 11.8284 42.8136 11.4505 43.577C11.1882 44.1068 10.9465 44.71 10.7231 45.3675C12.7186 48.8691 15.4313 51.9192 18.6872 54.3221V50.6282C18.6873 46.0307 15.2549 43.055 13.1625 41.668Z" fill="#7E6DD1"/>
<path d="M46.8473 49.293H41.3432C40.562 49.293 39.9229 49.9258 39.9229 50.6992V59.2539C39.9229 59.4198 39.9537 59.5786 40.0078 59.7268C42.8679 59.336 45.6523 58.5215 48.2676 57.3107V50.6992C48.2676 49.9258 47.6285 49.293 46.8473 49.293Z" fill="#B5B0F7"/>
<path d="M55.8247 10.3359C53.0716 12.3509 49.6459 15.7477 51.0982 20.0036C53.3471 26.5946 43.1676 30.7512 54.5308 35.5283C59.0741 37.4385 61.714 39.4314 63.2478 41.1359C64.3808 38.0643 65 34.748 65 31.2881C64.9999 23.0228 61.4708 15.5745 55.8247 10.3359ZM16.1753 10.3359C18.9284 12.3509 22.3541 15.7477 20.9018 20.0036C18.6529 26.5946 28.8324 30.7512 17.4692 35.5283C12.9259 37.4385 10.2858 39.4314 8.75217 41.1359C7.61917 38.0643 7 34.748 7 31.2881C7.00012 23.0228 10.5292 15.5745 16.1753 10.3359Z" fill="#615C4D"/>
<path d="M25.2137 18.4542H46.9067C46.9452 16.9067 47.2058 12.8108 48.8394 9.89307C48.9518 9.69271 49.0197 9.47089 49.0386 9.24244C49.0576 9.014 49.027 8.78419 48.949 8.56838C48.3562 6.93221 46.5857 3.10721 42.7244 2.08698C42.5186 2.0326 42.4643 1.76917 42.6317 1.63897L43.2104 1.18885C43.4727 0.984712 43.3719 0.570103 43.0443 0.507642C40.1954 -0.0363424 30.7338 -1.33806 27.7948 4.64518C27.6193 5.00225 27.2887 5.25936 26.9005 5.35885C26.0453 5.57799 24.5071 6.23846 23.5046 8.21764C23.4072 8.40916 23.3491 8.61793 23.3338 8.83183C23.3186 9.04573 23.3463 9.26051 23.4156 9.4637C23.9028 10.8853 25.0899 14.7026 25.2137 18.4542Z" fill="#56415E"/>
<path d="M34.9203 8.99461C31.4555 3.76699 37.516 0 37.516 0C33.8405 0.0471094 29.5946 0.978984 27.7948 4.64309C27.6193 5.00016 27.2887 5.25727 26.9005 5.35676C26.0453 5.5759 24.5071 6.23637 23.5046 8.21555C23.4072 8.40707 23.3491 8.61584 23.3338 8.82974C23.3186 9.04364 23.3463 9.25841 23.4156 9.4616C23.9028 10.8832 25.0899 14.7005 25.2137 18.4521H30.2632C33.459 15.8891 36.9791 12.101 34.9203 8.99461Z" fill="#45304C"/>
<path d="M47.7487 17.8278C47.2631 17.3872 46.1773 17.6105 45.759 17.8803C45.8506 18.4453 45.8558 19.0232 45.7767 19.5939L45.2831 23.1532C45.2831 23.44 45.2739 23.7215 45.2571 23.9981C46.4608 24.3575 47.177 23.2877 47.2778 22.5535C47.321 22.2375 47.3921 21.9258 47.4904 21.622C47.8105 20.6322 48.9655 18.9318 47.7487 17.8278Z" fill="#FFBB99"/>
<path d="M24.2515 17.8278C24.7371 17.3872 25.8229 17.6105 26.2412 17.8803C26.1499 18.4475 26.144 19.025 26.2236 19.5939L26.7172 23.1532C26.7172 23.44 26.7263 23.7215 26.7431 23.9981C25.5394 24.3575 24.8232 23.2877 24.7225 22.5535C24.6792 22.2375 24.6081 21.9258 24.5099 21.622C24.1897 20.6322 23.0347 18.9318 24.2515 17.8278Z" fill="#EEA784"/>
<path d="M45.5801 16.7825C45.4689 16.4955 45.3289 16.2049 45.1524 15.9308C44.8535 15.4665 44.722 14.9174 44.7622 14.3699C44.8773 12.7951 44.8155 9.71506 42.7275 8.78483C40.9535 7.99451 38.7773 8.45213 37.3896 8.90893C36.5215 9.19421 35.5853 9.20499 34.7108 8.93975C33.1296 10.1412 33.0925 12.8462 33.1994 14.2865C33.2412 14.8379 33.1021 15.3879 32.8028 15.8546C32.6297 16.1237 32.4911 16.4085 32.3803 16.6903C32.0208 17.6046 31.9159 18.5962 32.0506 19.5672L32.5508 23.1744C32.5508 28.3602 35.3469 31.8849 37.7252 33.7135C38.0763 33.9834 38.4518 34.2156 38.844 34.4137C39.3608 34.1873 39.8478 33.8994 40.2943 33.5564C42.6416 31.7518 45.4011 28.273 45.4011 23.1549L45.8947 19.5957C46.0264 18.6469 45.9266 17.6778 45.5801 16.7825Z" fill="#F1BCA2"/>
<path d="M37.7423 33.5565C35.3949 31.7519 32.6355 28.2731 32.6355 23.1551L32.1418 19.595C32.0088 18.6368 32.1123 17.658 32.467 16.7557C32.5764 16.4775 32.7131 16.1965 32.8842 15.9309C33.1796 15.4703 33.3169 14.9275 33.2756 14.3833C33.1667 12.9166 33.2091 10.1213 34.9202 8.99799C34.8158 8.9721 34.7125 8.94239 34.6104 8.90893C33.2226 8.45213 31.0465 7.99451 29.2726 8.78483C27.1785 9.71764 27.1223 12.8127 27.2389 14.3833C27.2803 14.9275 27.143 15.4703 26.8475 15.9309C26.6766 16.1965 26.5398 16.4775 26.4304 16.7557C26.0756 17.658 25.9722 18.6368 26.1051 19.595L26.5988 23.1551C26.5988 28.2731 29.3584 31.7518 31.7056 33.5565C32.9308 34.4985 34.4428 35.0101 36 35.0101C37.0444 35.01 38.0756 34.7791 39.0184 34.3343C38.566 34.1212 38.1381 33.8604 37.7423 33.5565Z" fill="#EFA176"/>
<g clip-path="url(#clip0_45_4056)">
<path d="M34.92 64.8667C35.03 64.6779 35.1877 64.5212 35.3772 64.4123C35.5667 64.3034 35.7814 64.2461 36 64.2461C36.2185 64.2461 36.4333 64.3034 36.6228 64.4123C36.8123 64.5212 36.9699 64.6779 37.08 64.8667L39.875 69.6647L45.303 70.8407C45.5165 70.8871 45.7141 70.9887 45.8761 71.1353C46.0382 71.2818 46.159 71.4683 46.2264 71.6762C46.2939 71.884 46.3058 72.1058 46.2608 72.3196C46.2158 72.5335 46.1155 72.7317 45.97 72.8947L42.27 77.0357L42.83 82.5607C42.8521 82.7783 42.8167 82.9978 42.7274 83.1974C42.6381 83.3971 42.498 83.5697 42.3211 83.6983C42.1442 83.8268 41.9367 83.9067 41.7192 83.9299C41.5018 83.9532 41.2821 83.919 41.082 83.8307L36 81.5907L30.918 83.8307C30.7179 83.919 30.4982 83.9532 30.2807 83.9299C30.0633 83.9067 29.8558 83.8268 29.6789 83.6983C29.5019 83.5697 29.3618 83.3971 29.2726 83.1974C29.1833 82.9978 29.1479 82.7783 29.17 82.5607L29.73 77.0357L26.03 72.8957C25.8842 72.7328 25.7837 72.5344 25.7386 72.3204C25.6935 72.1065 25.7052 71.8845 25.7727 71.6765C25.8402 71.4685 25.9611 71.2819 26.1233 71.1352C26.2855 70.9886 26.4833 70.887 26.697 70.8407L32.125 69.6647L34.92 64.8667Z" fill="url(#paint0_linear_45_4056)"/>
</g>
<g clip-path="url(#clip1_45_4056)">
<path d="M10.92 57.8667C11.03 57.6779 11.1877 57.5212 11.3772 57.4123C11.5667 57.3034 11.7814 57.2461 12 57.2461C12.2185 57.2461 12.4333 57.3034 12.6228 57.4123C12.8123 57.5212 12.9699 57.6779 13.08 57.8667L15.875 62.6647L21.303 63.8407C21.5165 63.8871 21.7141 63.9887 21.8761 64.1353C22.0382 64.2818 22.159 64.4683 22.2264 64.6762C22.2939 64.884 22.3058 65.1058 22.2608 65.3196C22.2158 65.5335 22.1155 65.7317 21.97 65.8947L18.27 70.0357L18.83 75.5607C18.8521 75.7783 18.8167 75.9978 18.7274 76.1974C18.6381 76.3971 18.498 76.5697 18.3211 76.6983C18.1442 76.8268 17.9367 76.9067 17.7192 76.9299C17.5018 76.9532 17.2821 76.919 17.082 76.8307L12 74.5907L6.91799 76.8307C6.7179 76.919 6.49818 76.9532 6.28074 76.9299C6.0633 76.9067 5.85577 76.8268 5.67886 76.6983C5.50195 76.5697 5.36185 76.3971 5.27255 76.1974C5.18326 75.9978 5.14789 75.7783 5.16999 75.5607L5.72999 70.0357L2.02999 65.8957C1.88421 65.7328 1.78374 65.5344 1.7386 65.3204C1.69346 65.1065 1.70523 64.8845 1.77273 64.6765C1.84023 64.4685 1.96111 64.2819 2.12329 64.1352C2.28547 63.9886 2.48329 63.887 2.69699 63.8407L8.12499 62.6647L10.92 57.8667Z" fill="url(#paint1_linear_45_4056)"/>
</g>
<g clip-path="url(#clip2_45_4056)">
<path d="M59.1 59.3883C59.1917 59.2309 59.3231 59.1004 59.481 59.0096C59.6389 58.9189 59.8178 58.8711 60 58.8711C60.1821 58.8711 60.3611 58.9189 60.519 59.0096C60.6769 59.1004 60.8083 59.2309 60.9 59.3883L63.2292 63.3866L67.7525 64.3666C67.9304 64.4053 68.0951 64.4899 68.2301 64.6121C68.3651 64.7342 68.4658 64.8896 68.522 65.0628C68.5783 65.236 68.5881 65.4209 68.5506 65.5991C68.5131 65.7772 68.4296 65.9425 68.3083 66.0783L65.225 69.5291L65.6917 74.1333C65.7101 74.3146 65.6806 74.4975 65.6062 74.6639C65.5318 74.8302 65.415 74.9741 65.2676 75.0813C65.1202 75.1884 64.9472 75.2549 64.766 75.2743C64.5848 75.2937 64.4017 75.2652 64.235 75.1916L60 73.325L55.765 75.1916C55.5983 75.2652 55.4151 75.2937 55.2339 75.2743C55.0528 75.2549 54.8798 75.1884 54.7324 75.0813C54.585 74.9741 54.4682 74.8302 54.3938 74.6639C54.3194 74.4975 54.2899 74.3146 54.3083 74.1333L54.775 69.5291L51.6917 66.0791C51.5702 65.9433 51.4865 65.778 51.4488 65.5997C51.4112 65.4214 51.421 65.2364 51.4773 65.0631C51.5335 64.8898 51.6343 64.7342 51.7694 64.612C51.9046 64.4898 52.0694 64.4052 52.2475 64.3666L56.7708 63.3866L59.1 59.3883Z" fill="#36332E"/>
</g>
<defs>
<linearGradient id="paint0_linear_45_4056" x1="25.1602" y1="67.3521" x2="46.7074" y2="68.2875" gradientUnits="userSpaceOnUse">
<stop stop-color="#C09E6C"/>
<stop offset="0.426246" stop-color="#FFEBCC"/>
<stop offset="1" stop-color="#BF936B"/>
</linearGradient>
<linearGradient id="paint1_linear_45_4056" x1="1.16022" y1="60.3521" x2="22.7074" y2="61.2875" gradientUnits="userSpaceOnUse">
<stop stop-color="#C09E6C"/>
<stop offset="0.426246" stop-color="#FFEBCC"/>
<stop offset="1" stop-color="#BF936B"/>
</linearGradient>
<clipPath id="clip0_45_4056">
<rect width="24" height="24" fill="white" transform="translate(24 62)"/>
</clipPath>
<clipPath id="clip1_45_4056">
<rect width="24" height="24" fill="white" transform="translate(0 55)"/>
</clipPath>
<clipPath id="clip2_45_4056">
<rect width="20" height="20" fill="white" transform="translate(50 57)"/>
</clipPath>
</defs>
</svg>
